<svg xmlns="http://www.w3.org/2000/svg" width="149.04" height="30" fill-rule="evenodd"><path fill="#008bcf" d="M69.22 7.23a13.25 13.25 0 0 1 1.46.08l.74.1-.76 3.66c-1.48-.45-3.9-.24-4.46 1.57a5.26 5.26 0 0 0-.15.6h0l-1.68 8.05-.06.3h-4.6l.1-.46 1.85-8.94a8.3 8.3 0 0 1 .27-.94 7.75 7.75 0 0 1 .39-.89h0c.16-.3.35-.6.58-.86s.5-.52.8-.75h0a5.16 5.16 0 0 1 1.02-.63c.38-.2.8-.35 1.24-.48h0c.46-.15.96-.25 1.5-.32a16.26 16.26 0 0 1 1.77-.1h0zM37.55 21.16l2.83-13.58H45l-.1.46-2.84 13.57h-4.62l.1-.45zM42.4 1.04h3.25c.43 0 .7.35.62.78l-.56 2.72c-.1.43-.5.78-.94.78h-3.25c-.43 0-.7-.35-.62-.78l.56-2.72c.1-.43.52-.78.94-.78h0zM28.64 21.96a13.25 13.25 0 0 1-1.46-.08c-.46-.05-.88-.13-1.27-.24s-.75-.23-1.07-.38h0a5.08 5.08 0 0 1-.89-.52 4.33 4.33 0 0 1-.69-.66c-.2-.24-.36-.5-.5-.78h0c-.13-.27-.22-.56-.3-.85-.07-.3-.1-.6-.12-.92h0v-.33l.03-.37.06-.45.1-.52 1.7-8.28h4.62l-.1.46-1.74 8.37-.03.26v.01c-.01.08-.01.16-.01.25h0v.22a1.89 1.89 0 0 0 .12.61c.07.16.17.3.3.42h0c.13.1.3.2.5.25.24.06.53.1.88.1.25 0 .48-.01.7-.04.2-.03.4-.07.55-.13h0c.16-.06.3-.13.45-.2s.26-.17.37-.28a3.65 3.65 0 0 0 .31-.36c.1-.13.18-.28.25-.44h0c.08-.17.14-.35.2-.54a5.26 5.26 0 0 0 .15-.6h0l1.74-8.35h4.6l-.1.46-1.85 8.94a8.3 8.3 0 0 1-.27.94 7.75 7.75 0 0 1-.39.89h0c-.16.3-.35.6-.58.86s-.5.52-.8.75h0a5.16 5.16 0 0 1-1.02.63c-.38.2-.8.35-1.24.48h0c-.45.14-.95.24-1.5.3-.5.1-1.08.12-1.7.12h0zm20-.35H44.4l.1-.46L48.67 1h4.6l-.1.46-2.13 10.28-.07.3 4.73-4.48h5.78l-.7.64-6.58 6.08c.44 1.13 1.4 3.72 3.2 4.13.47.1.97-.01 1.33-.1l-.67 3.24-.05.26-.3.04-.64.07c-.22.02-.42.02-.62.02a7.81 7.81 0 0 1-1.34-.11 4.54 4.54 0 0 1-1.13-.34h0c-.33-.15-.62-.3-.9-.5a4.61 4.61 0 0 1-.75-.64h0a5.73 5.73 0 0 1-.57-.73 5.15 5.15 0 0 1-.43-.8h0l-.33-.78-.3-.75-.26-.7-.25-.63-.03-.07L49 21.6h-.36z"/><path fill="#0faa13" d="M21.6 8.83c.28 3.23-1 8.6-3.4 10.94-.54.53-1.16.96-1.8 1.3l-1.22-2.1c-.48-.8-.95-1.32-1.44-1.64.78-.5 1.32-1.2 1.75-2.2.5-1.17 1.2-3.9 1.02-5.2-.2-1.42-1.15-2.56-3.38-2.7-1-.06-2 .01-2.96.26-.85.2-1.57.6-2.1 1.1-1.22 1.14-2 4-2.1 5.65-.07 1.14.1 2 .5 2.6.72 1.07 1.87 1.18 3 1.16h.87c1.37 0 2.53.15 3.7 2.15l1.5 2.6c.84 1.37 1 1.78 3.04 1.8h4.62L22.3 29h-5.2c-1.44 0-3.42-.2-4.6-2.22l-1.76-3.03c-.7-1.1-.66-1.3-1.9-1.38-1.38-.07-2.9-.24-3.76-.57-2.12-.8-3.8-2.4-4.05-5.24a11.71 11.71 0 0 1 .04-2.28c.1-.9.33-2 .55-2.9.6-2.4 1.4-4.3 2.9-5.75C6.42 3.8 9.1 3.1 11.64 3c1-.04 2.73.01 4.17.2 3.15.43 5.5 2.26 5.8 5.63m56.84 2.38c.65 0 1.2-.1 1.7-.26a3.94 3.94 0 0 0 1.25-.72c.35-.3.63-.67.85-1.1s.38-.9.5-1.43c.23-1.05.14-1.9-.25-2.53s-1.25-.96-2.56-.96h-4.28l-1.5 7h4.3zm-1.65 8.74c1.43 0 2.5-.3 3.23-.95.72-.63 1.2-1.5 1.44-2.65.26-1.26.14-2.18-.37-2.76s-1.44-.87-2.78-.87h-4.5l-1.52 7.22h4.5zm3.78-17.32c.9 0 1.63.15 2.22.46s1.04.7 1.35 1.2a3.93 3.93 0 0 1 .56 1.73 7.02 7.02 0 0 1-.12 2.03c-.14.63-.34 1.17-.6 1.63s-.55.84-.87 1.16-.63.57-.96.76c-.32.2-.6.32-.83.4.23.05.5.18.8.38s.57.5.8.87.42.85.53 1.42c.1.57.07 1.25-.1 2.03-.33 1.58-1.04 2.77-2.1 3.6-1.08.82-2.56 1.23-4.45 1.23h-6.77l4.02-18.9h6.53zm14.7 10.3c.1-.47.1-.94.04-1.4a3.26 3.26 0 0 0-.43-1.25 2.51 2.51 0 0 0-.92-.88c-.4-.22-.85-.33-1.4-.33-.63 0-1.2.1-1.7.3s-.94.5-1.33.94c-.4.44-.72 1-1 1.72s-.54 1.58-.75 2.6c-.23 1.03-.35 1.9-.37 2.6s.07 1.28.28 1.72c.2.44.5.75.92.95.4.2.93.3 1.56.3a3.56 3.56 0 0 0 1.56-.34c.48-.23.9-.53 1.3-.9.38-.37.7-.78.96-1.25.25-.46.43-.94.54-1.43l.73-3.36zm1.3-5.07h1.68l-2.9 13.55h-1.58l.18-1.68c-.5.67-1.1 1.18-1.8 1.54s-1.58.54-2.63.54c-.8 0-1.5-.14-2.07-.43-.58-.3-1.02-.74-1.34-1.35-.3-.6-.5-1.4-.52-2.35-.04-.95.1-2.1.37-3.45.28-1.33.63-2.43 1.05-3.3.42-.87.9-1.57 1.44-2.07.54-.5 1.14-.86 1.8-1.06a7.33 7.33 0 0 1 2.14-.3c1 0 1.8.2 2.4.58a3.06 3.06 0 0 1 1.27 1.55l.5-1.76zm10.78 12.08l-.34 1.6h-9.48l.34-1.6 9.7-10.6h-6.9l.34-1.6h8.92l-.34 1.6-9.7 10.6h7.46zm12.2-7c.1-.47.1-.94.04-1.4a3.26 3.26 0 0 0-.43-1.25 2.51 2.51 0 0 0-.92-.88c-.4-.22-.85-.33-1.4-.33-.63 0-1.2.1-1.7.3s-.94.5-1.33.94c-.4.44-.72 1-1 1.72s-.54 1.58-.75 2.6c-.23 1.03-.35 1.9-.37 2.6s.07 1.28.28 1.72c.2.44.5.75.92.95.4.2.93.3 1.56.3a3.56 3.56 0 0 0 1.56-.34c.48-.23.9-.53 1.3-.9.38-.37.7-.78.96-1.25.25-.46.43-.94.54-1.43l.73-3.36zm1.3-5.07h1.68l-2.9 13.55h-1.58l.18-1.68c-.5.67-1.1 1.18-1.8 1.54s-1.58.54-2.62.54c-.8 0-1.5-.14-2.07-.43-.58-.3-1.02-.74-1.34-1.35-.3-.6-.5-1.4-.52-2.35-.04-.95.1-2.1.37-3.45.28-1.33.63-2.43 1.05-3.3.42-.87.9-1.57 1.44-2.07.54-.5 1.14-.86 1.8-1.06a7.33 7.33 0 0 1 2.14-.3c1 0 1.8.2 2.4.58a3.06 3.06 0 0 1 1.27 1.55l.5-1.76zm12.2 5.07c.1-.47.1-.94.04-1.4a3.26 3.26 0 0 0-.43-1.25 2.51 2.51 0 0 0-.92-.88c-.4-.22-.85-.33-1.4-.33-.63 0-1.2.1-1.7.3s-.94.5-1.33.94c-.4.44-.72 1-1 1.72s-.54 1.58-.75 2.6c-.23 1.03-.35 1.9-.37 2.6s.07 1.28.28 1.72c.2.44.5.75.92.95.4.2.93.3 1.56.3a3.56 3.56 0 0 0 1.56-.34c.48-.23.9-.53 1.3-.9.38-.37.7-.78.96-1.25.25-.46.43-.94.54-1.43l.73-3.36zm1.3-5.07h1.68l-2.9 13.55h-1.58l.18-1.68c-.5.67-1.1 1.18-1.8 1.54s-1.58.54-2.63.54c-.8 0-1.5-.14-2.07-.43-.58-.3-1.02-.74-1.34-1.35-.3-.6-.5-1.4-.52-2.35-.04-.95.1-2.1.37-3.45.28-1.33.63-2.43 1.05-3.3.42-.87.9-1.57 1.44-2.07.54-.5 1.14-.86 1.8-1.06a7.33 7.33 0 0 1 2.14-.3c1 0 1.8.2 2.4.58a3.06 3.06 0 0 1 1.27 1.55l.5-1.76zm7.45.7c.37-.3.72-.52 1.06-.68s.67-.26.98-.3c.32-.05.6-.08.87-.08.56 0 1 .07 1.35.22s.77.4.77.4l-1.13 1.52s-.5-.3-.8-.37c-.3-.05-.6-.08-.96-.08-.6 0-1.24.24-1.9.72s-1.25 1.12-1.8 1.9l-2.05 9.58h-1.9l2.9-13.55h1.9l-.42 1.92c.4-.5.78-.9 1.14-1.2"/></svg>