<svg width="20" height="20" viewBox="0 0 20 20" fill="none" xmlns="http://www.w3.org/2000/svg">
  <path d="M18.3333 0H1.66667C0.746192 0 0 0.746192 0 1.66667V18.3333C0 19.2538 0.746192 20 1.66667 20H18.3333C19.2538 20 20 19.2538 20 18.3333V1.66667C20 0.746192 19.2538 0 18.3333 0Z" fill="white"/>
  <g clip-path="url(#clip0_635_112)">
    <path d="M19.9997 10.1972C19.9997 10.1934 19.9995 10.1897 19.9995 10.1859C19.994 9.9353 19.7927 9.73559 19.5391 9.73559H19.4182L17.5511 6.1259C17.4724 5.97348 17.3153 5.87857 17.1418 5.87853L13.9543 5.87786L14.0759 4.91393C14.1106 4.52871 13.9915 4.16499 13.7405 3.88969C13.4899 3.61495 13.1401 3.46362 12.7554 3.46362H2.86234C2.61359 3.46362 2.40229 3.65609 2.37857 3.90422L2.2794 4.69841H7.91599C8.28199 4.69841 8.57092 4.99511 8.56136 5.3611C8.55175 5.7271 8.24729 6.0238 7.88129 6.0238H6.00119C6.00152 6.02474 6.00185 6.02569 6.00218 6.02659H0.48109C0.22226 6.02659 0.0069324 6.23638 0.000163461 6.49521C-0.00660548 6.75404 0.197693 6.96383 0.456523 6.96383H7.76584C8.10514 7.01609 8.35862 7.30952 8.3493 7.66477C8.33907 8.05491 8.01611 8.37125 7.62663 8.37451H2.58741C2.32598 8.37451 2.10852 8.58643 2.10166 8.84787C2.0948 9.1093 2.30118 9.32122 2.56261 9.32122H7.54247C7.88674 9.36917 8.14528 9.66497 8.13591 10.0237C8.12564 10.4158 7.79941 10.7337 7.40728 10.7337H1.69425V10.7342H1.21422C0.952786 10.7342 0.735327 10.9461 0.728464 11.2076C0.7216 11.469 0.927935 11.6809 1.18941 11.6809H1.60369L1.44166 13.3764C1.40692 13.7616 1.52602 14.1253 1.77708 14.4006C2.02758 14.6754 2.37743 14.8266 2.76213 14.8266H3.11951C3.28982 15.8005 4.13239 16.5363 5.16302 16.5363C6.19365 16.5363 7.07475 15.8005 7.29595 14.8267H11.7558C12.1164 14.8267 12.4578 14.6888 12.7255 14.4631C12.9704 14.698 13.2949 14.8267 13.6492 14.8267H13.7226C13.8929 15.8005 14.7354 16.5363 15.7661 16.5363C16.7967 16.5363 17.6778 15.8005 17.899 14.8267H18.1934C18.9603 14.8267 19.6404 14.2032 19.7095 13.4369L19.998 10.2415C19.9984 10.2372 19.9982 10.2329 19.9985 10.2286C19.9989 10.222 19.9998 10.2156 20 10.2089C20.0001 10.205 19.9997 10.2011 19.9997 10.1972ZM5.18782 15.5896C4.53531 15.5896 4.01831 15.0588 4.0354 14.4063C4.05249 13.7537 4.59727 13.2229 5.24979 13.2229C5.9023 13.2229 6.41925 13.7537 6.40216 14.4063C6.38508 15.0588 5.84034 15.5896 5.18782 15.5896ZM15.7909 15.5896C15.1384 15.5896 14.6215 15.0588 14.6385 14.4063C14.6556 13.7537 15.2004 13.2229 15.8529 13.2229C16.5054 13.2229 17.0224 13.7537 17.0053 14.4063C16.9882 15.0588 16.4434 15.5896 15.7909 15.5896ZM18.7664 13.3764C18.7418 13.6494 18.4908 13.88 18.2183 13.88H17.8998C17.689 12.9592 16.8706 12.2762 15.8776 12.2762C14.8847 12.2762 14.0305 12.9592 13.7715 13.88H13.674C13.5537 13.88 13.4464 13.8349 13.3716 13.7529C13.2964 13.6704 13.261 13.5582 13.2719 13.4369L13.8688 6.82457L15.2396 6.82485L15.0223 9.23195C14.9875 9.61711 15.1065 9.98084 15.3576 10.2561C15.6081 10.531 15.958 10.6823 16.3428 10.6823H19.0095L18.7664 13.3764Z" fill="black"/>
  </g>
  <defs>
    <clipPath id="clip0_635_112">
      <rect width="20" height="20" fill="white"/>
    </clipPath>
  </defs>
</svg>
