<svg width="7" height="7" viewBox="0 0 7 7" fill="none" xmlns="http://www.w3.org/2000/svg">
  <path d="M3.50001 0C5.43301 0 7 1.56701 7 3.50001C7 5.43301 5.43301 7 3.50001 7C1.567 7 0 5.43301 0 3.50001C0 1.56701 1.567 0 3.50001 0ZM3.49868 2.88726C3.31919 2.88736 3.17138 3.02258 3.15129 3.19661L3.14894 3.23745L3.1502 5.16271L3.15258 5.20352C3.17292 5.37754 3.32094 5.51252 3.5004 5.51241C3.67985 5.51231 3.82767 5.37709 3.84779 5.20306L3.8501 5.16222L3.84884 3.23699L3.84646 3.19616C3.82613 3.02213 3.67813 2.88715 3.49868 2.88726ZM3.50015 1.57512C3.25827 1.57512 3.06219 1.7712 3.06219 2.01309C3.06219 2.25497 3.25827 2.45105 3.50015 2.45105C3.74203 2.45105 3.93814 2.25497 3.93814 2.01309C3.93814 1.7712 3.74203 1.57512 3.50015 1.57512Z" fill="#7D7D7D"/>
</svg>
