<svg width="18" height="20" viewBox="0 0 18 20" fill="none" xmlns="http://www.w3.org/2000/svg">
  <path d="M15.364 14.8771L14.1371 16.052C13.2329 16.9114 12.0595 18.0163 10.6168 19.367C9.71515 20.2111 8.28483 20.211 7.38341 19.3668L3.77495 15.9679C3.32144 15.5368 2.94183 15.1732 2.63604 14.8771C-0.87868 11.4738 -0.87868 5.95584 2.63604 2.5525C6.15076 -0.850834 11.8493 -0.850834 15.364 2.5525C18.8787 5.95584 18.8787 11.4738 15.364 14.8771ZM11.5842 8.98975C11.5842 7.60771 10.4272 6.48736 8.99999 6.48736C7.57277 6.48736 6.41576 7.60771 6.41576 8.98975C6.41576 10.3717 7.57277 11.4921 8.99999 11.4921C10.4272 11.4921 11.5842 10.3717 11.5842 8.98975Z" fill="#6B6E72"/>
</svg>
