<svg width="18" height="18" viewBox="0 0 18 18" fill="none" xmlns="http://www.w3.org/2000/svg">
  <path d="M10.268 0.247123C9.45477 -0.0823743 8.54523 -0.0823743 7.73199 0.247123L5.76052 1.04595L14.3935 4.40146L17.4304 3.22872C17.3081 3.12732 17.1692 3.04343 17.0167 2.98166L10.268 0.247123ZM18 4.45527L9.67482 7.67012V17.4958C9.87624 17.4547 10.0749 17.395 10.268 17.3168L17.0167 14.5823C17.6111 14.3414 18 13.7644 18 13.1234V4.45527ZM8.32482 17.4958V7.67012L0 4.45542V13.1234C0 13.7644 0.388899 14.3414 0.983268 14.5823L7.73199 17.3168C7.92504 17.395 8.12349 17.4547 8.32482 17.4958ZM0.569457 3.22882L8.99982 6.4843L12.5251 5.12297L3.93691 1.78487L0.983268 2.98166C0.830772 3.04345 0.691803 3.12737 0.569457 3.22882Z" fill="#6B6E72"/>
</svg>
