<svg width="18" height="19" viewBox="0 0 18 19" fill="none" xmlns="http://www.w3.org/2000/svg">
  <path d="M1.35 11.0042L10.35 11.0051C11.0514 11.0051 11.6284 11.5533 11.6938 12.2534L11.7 12.3863V14.2271C11.6991 17.45 8.3556 18.3708 5.85 18.3708C3.40008 18.3708 0.14823 17.4905 0.00490501 14.4385L0 14.2271V12.3854C0 11.6678 0.535743 11.0775 1.22005 11.0105L1.35 11.0042ZM12.1392 11.0042H16.65C17.3514 11.0042 17.9284 11.5515 17.9938 12.2524L18 12.3854V13.7667C17.9991 16.5863 15.4278 17.45 13.5 17.45C12.888 17.45 12.2121 17.3616 11.574 17.1535C12.1615 16.4626 12.5426 15.5851 12.5941 14.4849L12.6 14.2271V12.3854C12.6 11.9302 12.4656 11.5095 12.2409 11.153L12.1392 11.0042H16.65H12.1392ZM5.85 0.875C8.0865 0.875 9.9 2.73048 9.9 5.01875C9.9 7.30703 8.0865 9.16251 5.85 9.16251C3.6135 9.16251 1.8 7.30703 1.8 5.01875C1.8 2.73048 3.6135 0.875 5.85 0.875ZM13.95 2.71667C15.6897 2.71667 17.1 4.15962 17.1 5.93959C17.1 7.71956 15.6897 9.16251 13.95 9.16251C12.2103 9.16251 10.8 7.71956 10.8 5.93959C10.8 4.15962 12.2103 2.71667 13.95 2.71667Z" fill="#6B6E72"/>
</svg>
