<svg width="12" height="14" viewBox="0 0 12 14" fill="none" xmlns="http://www.w3.org/2000/svg">
  <path d="M6.23777 0.0734738C6.09377 -0.0244912 5.90623 -0.0244912 5.76227 0.0734738C4.10097 1.20409 2.30428 1.90951 0.367963 2.1919C0.156823 2.22268 0 2.40727 0 2.625V6.5625C0 9.96739 1.97742 12.4519 5.84615 13.9709C5.94519 14.0097 6.05486 14.0097 6.15386 13.9709C10.0226 12.4519 12 9.96739 12 6.5625V2.625C12 2.40727 11.8431 2.22268 11.632 2.1919C9.69574 1.90951 7.899 1.20409 6.23777 0.0734738ZM6 6.56207C5.05323 6.56207 4.28571 5.77857 4.28571 4.81207C4.28571 3.84557 5.05323 3.06207 6 3.06207C6.9468 3.06207 7.71429 3.84557 7.71429 4.81207C7.71429 5.77857 6.9468 6.56207 6 6.56207ZM6 10.9371C3.85714 10.9371 3 9.84323 3 8.74956C3 8.02471 3.57563 7.43706 4.28571 7.43706H7.71429C8.42434 7.43706 9 8.02471 9 8.74956C9 9.83911 8.14286 10.9371 6 10.9371Z" fill="#4BB43A"/>
</svg>
